<mxfile host="app.diagrams.net" modified="2024-11-15T13:50:08.128Z" agent="Mozilla/5.0 (X11; Linux x86_64) AppleWebKit/537.36 (KHTML, like Gecko) Chrome/131.0.0.0 Safari/537.36" version="21.3.2" etag="qqwHAr4G85lqcRv2lznE" type="github">
  <diagram name="Page-1" id="GquiS3i-t8ybJYAAQEsU">
    <mxGraphModel>
      <root>
        <mxCell id="0" />
        <mxCell id="1" parent="0" />
      </root>
    </mxGraphModel>
  </diagram>
</mxfile>
